<?xml version="1.0" standalone="no"?>
<!DOCTYPE svg PUBLIC "-//W3C//DTD SVG 20010904//EN"
 "http://www.w3.org/TR/2001/REC-SVG-20010904/DTD/svg10.dtd">
<svg version="1.0" xmlns="http://www.w3.org/2000/svg"
 width="260.000000pt" height="260.000000pt" viewBox="0 0 260.000000 260.000000"
 preserveAspectRatio="xMidYMid meet">
<metadata>
Created by potrace 1.14, written by Peter Selinger 2001-2017
</metadata>
<g transform="translate(0.000000,260.000000) scale(0.100000,-0.100000)"
fill="#000000" stroke="none">
<path d="M967 2164 c-10 -9 -318 -18 -576 -16 -219 1 -318 -1 -327 -9 -8 -7
-12 -24 -9 -43 2 -17 6 -76 9 -131 3 -55 9 -154 13 -220 9 -134 9 -674 1 -977
-4 -152 -2 -200 7 -208 18 -15 119 -24 291 -24 171 -1 182 3 178 61 -1 21 -5
85 -9 143 -3 58 -8 169 -10 247 l-4 143 25 16 c22 15 52 16 262 10 130 -4 255
-9 278 -12 30 -3 45 0 54 11 18 22 19 325 1 377 l-12 37 -92 -4 c-51 -2 -172
-6 -269 -10 -153 -6 -181 -5 -202 8 -32 21 -45 64 -41 130 4 66 16 92 47 101
28 7 291 0 403 -10 44 -5 120 -8 170 -9 74 0 90 3 90 15 -1 8 -6 56 -13 105
-7 50 -14 125 -16 167 -4 108 -6 110 -138 107 -60 -2 -109 -4 -111 -5z"/>
<path d="M2287 2164 c-9 -10 -296 -18 -557 -16 -173 1 -325 0 -336 -3 -18 -4
-21 -11 -19 -37 2 -18 6 -80 9 -138 3 -58 9 -159 13 -225 9 -135 9 -677 1
-977 -4 -142 -2 -200 6 -207 19 -16 134 -26 292 -26 169 0 184 5 179 58 -9
110 -18 291 -19 407 -1 134 -1 134 24 148 20 10 76 12 265 7 132 -3 257 -8
277 -11 56 -8 62 11 62 201 0 120 -4 168 -15 190 -17 35 -3 34 -364 20 l-191
-8 -28 25 c-25 21 -29 32 -31 87 -4 69 6 107 33 127 18 14 247 13 412 -2 47
-4 125 -8 175 -8 74 -1 90 2 89 14 0 8 -6 58 -13 110 -7 52 -14 128 -15 169
-4 99 -10 103 -144 100 -56 -2 -103 -4 -105 -5z"/>
</g>
</svg>
